<mxfile host="Electron" agent="Mozilla/5.0 (Macintosh; Intel Mac OS X 10_15_7) AppleWebKit/537.36 (KHTML, like Gecko) draw.io/26.2.2 Chrome/134.0.6998.178 Electron/35.1.2 Safari/537.36" version="26.2.2">
  <diagram name="Page-1" id="c4acf3e9-155e-7222-9cf6-157b1a14988f">
    <mxGraphModel dx="844" dy="545" grid="1" gridSize="10" guides="1" tooltips="1" connect="1" arrows="1" fold="1" page="1" pageScale="1" pageWidth="850" pageHeight="1100" background="none" math="0" shadow="0">
      <root>
        <mxCell id="0" />
        <mxCell id="1" parent="0" />
        <mxCell id="ifsXWIb-73GObZmsJjH4-14" style="edgeStyle=orthogonalEdgeStyle;rounded=0;orthogonalLoop=1;jettySize=auto;html=1;exitX=0.5;exitY=0;exitDx=0;exitDy=0;entryX=0.5;entryY=1;entryDx=0;entryDy=0;strokeWidth=2;" parent="1" source="5d2195bd80daf111-19" target="awYQYSeKbYUx0vMZh93B-6" edge="1">
          <mxGeometry relative="1" as="geometry" />
        </mxCell>
        <mxCell id="5d2195bd80daf111-19" value="&lt;p style=&quot;margin:0px;margin-top:4px;text-align:center;&quot;&gt;&lt;i&gt;&amp;lt;&amp;lt;Interface&amp;gt;&amp;gt;&lt;/i&gt;&lt;br&gt;&lt;b&gt;Logger&lt;/b&gt;&lt;/p&gt;&lt;hr size=&quot;1&quot;&gt;&lt;p style=&quot;margin:0px;margin-left:4px;&quot;&gt;log()&lt;/p&gt;&lt;p style=&quot;margin:0px;margin-left:4px;&quot;&gt;info()&lt;/p&gt;&lt;p style=&quot;margin:0px;margin-left:4px;&quot;&gt;warning()&lt;/p&gt;&lt;p style=&quot;margin:0px;margin-left:4px;&quot;&gt;error()&lt;/p&gt;" style="verticalAlign=top;align=left;overflow=fill;fontSize=12;fontFamily=Helvetica;html=1;rounded=0;shadow=0;comic=0;labelBackgroundColor=none;strokeWidth=1" parent="1" vertex="1">
          <mxGeometry x="120" y="305" width="110" height="110" as="geometry" />
        </mxCell>
        <mxCell id="awYQYSeKbYUx0vMZh93B-1" value="Logic" style="swimlane;fontStyle=1;align=center;verticalAlign=top;childLayout=stackLayout;horizontal=1;startSize=26;horizontalStack=0;resizeParent=1;resizeParentMax=0;resizeLast=0;collapsible=1;marginBottom=0;whiteSpace=wrap;html=1;" parent="1" vertex="1">
          <mxGeometry x="330" y="105" width="150" height="310" as="geometry" />
        </mxCell>
        <mxCell id="awYQYSeKbYUx0vMZh93B-3" value="" style="line;strokeWidth=1;fillColor=none;align=left;verticalAlign=middle;spacingTop=-1;spacingLeft=3;spacingRight=3;rotatable=0;labelPosition=right;points=[];portConstraint=eastwest;strokeColor=inherit;" parent="awYQYSeKbYUx0vMZh93B-1" vertex="1">
          <mxGeometry y="26" width="150" height="8" as="geometry" />
        </mxCell>
        <mxCell id="awYQYSeKbYUx0vMZh93B-4" value="&lt;div&gt;start()&lt;/div&gt;&lt;div&gt;onNewNumber()&lt;/div&gt;&lt;div&gt;onAverageSquare()&amp;nbsp;&lt;/div&gt;&lt;div&gt;&lt;span style=&quot;background-color: transparent; color: light-dark(rgb(0, 0, 0), rgb(255, 255, 255));&quot;&gt;stop()&lt;/span&gt;&lt;/div&gt;" style="text;strokeColor=none;fillColor=none;align=left;verticalAlign=top;spacingLeft=4;spacingRight=4;overflow=hidden;rotatable=0;points=[[0,0.5],[1,0.5]];portConstraint=eastwest;whiteSpace=wrap;html=1;" parent="awYQYSeKbYUx0vMZh93B-1" vertex="1">
          <mxGeometry y="34" width="150" height="276" as="geometry" />
        </mxCell>
        <mxCell id="awYQYSeKbYUx0vMZh93B-7" value="&lt;p style=&quot;margin:0px;margin-top:4px;text-align:center;&quot;&gt;&lt;/p&gt;&lt;div style=&quot;text-align: center; height: 2px;&quot;&gt;&lt;b&gt;DuplicateLogger&lt;/b&gt;&lt;/div&gt;&lt;div style=&quot;text-align: center;&quot;&gt;&lt;br&gt;&lt;/div&gt;&lt;hr size=&quot;1&quot; style=&quot;border-style:solid;&quot;&gt;&lt;div style=&quot;height:2px;&quot;&gt;&lt;/div&gt;" style="verticalAlign=top;align=left;overflow=fill;html=1;whiteSpace=wrap;" parent="1" vertex="1">
          <mxGeometry x="50" y="203" width="110" height="60" as="geometry" />
        </mxCell>
        <mxCell id="awYQYSeKbYUx0vMZh93B-8" value="" style="endArrow=block;dashed=1;endFill=0;endSize=12;html=1;rounded=0;" parent="1" target="awYQYSeKbYUx0vMZh93B-6" edge="1">
          <mxGeometry width="160" relative="1" as="geometry">
            <mxPoint x="210" y="245" as="sourcePoint" />
            <mxPoint x="370" y="245" as="targetPoint" />
          </mxGeometry>
        </mxCell>
        <mxCell id="awYQYSeKbYUx0vMZh93B-6" value="&lt;p style=&quot;margin:0px;margin-top:4px;text-align:center;&quot;&gt;&lt;/p&gt;&lt;div style=&quot;text-align: center; height: 2px;&quot;&gt;&lt;b&gt;FakeLogger&lt;/b&gt;&lt;/div&gt;&lt;div style=&quot;text-align: center;&quot;&gt;&lt;br&gt;&lt;/div&gt;&lt;hr size=&quot;1&quot; style=&quot;border-style:solid;&quot;&gt;&lt;div style=&quot;height:2px;&quot;&gt;&lt;/div&gt;" style="verticalAlign=top;align=left;overflow=fill;html=1;whiteSpace=wrap;" parent="1" vertex="1">
          <mxGeometry x="180" y="203" width="108" height="60" as="geometry" />
        </mxCell>
        <mxCell id="awYQYSeKbYUx0vMZh93B-9" value="&lt;p style=&quot;margin:0px;margin-top:4px;text-align:center;&quot;&gt;&lt;/p&gt;&lt;div style=&quot;text-align: center; height: 2px;&quot;&gt;&lt;b&gt;ScreenLogger&lt;/b&gt;&lt;/div&gt;&lt;div style=&quot;text-align: center; height: 2px;&quot;&gt;&lt;b&gt;&lt;br&gt;&lt;/b&gt;&lt;/div&gt;&lt;div style=&quot;text-align: center; height: 2px;&quot;&gt;&lt;b&gt;&lt;br&gt;&lt;/b&gt;&lt;/div&gt;&lt;div style=&quot;text-align: center; height: 2px;&quot;&gt;&lt;b&gt;&lt;br&gt;&lt;/b&gt;&lt;/div&gt;&lt;hr size=&quot;1&quot; style=&quot;border-style:solid;&quot;&gt;&lt;div style=&quot;height:2px;&quot;&gt;&lt;/div&gt;" style="verticalAlign=top;align=left;overflow=fill;html=1;whiteSpace=wrap;" parent="1" vertex="1">
          <mxGeometry x="50" y="105" width="110" height="60" as="geometry" />
        </mxCell>
        <mxCell id="awYQYSeKbYUx0vMZh93B-10" value="&lt;p style=&quot;margin:0px;margin-top:4px;text-align:center;&quot;&gt;&lt;/p&gt;&lt;div style=&quot;text-align: center; height: 2px;&quot;&gt;&lt;b&gt;FileLogger&lt;/b&gt;&lt;/div&gt;&lt;div style=&quot;text-align: center; height: 2px;&quot;&gt;&lt;b&gt;&lt;br&gt;&lt;/b&gt;&lt;/div&gt;&lt;div style=&quot;text-align: center; height: 2px;&quot;&gt;&lt;b&gt;&lt;br&gt;&lt;/b&gt;&lt;/div&gt;&lt;div style=&quot;text-align: center; height: 2px;&quot;&gt;&lt;b&gt;&lt;br&gt;&lt;/b&gt;&lt;/div&gt;&lt;hr size=&quot;1&quot; style=&quot;text-align: center; border-style: solid;&quot;&gt;&lt;div style=&quot;text-align: center; height: 2px;&quot;&gt;&lt;/div&gt;" style="verticalAlign=top;align=left;overflow=fill;html=1;whiteSpace=wrap;" parent="1" vertex="1">
          <mxGeometry x="180" y="105" width="110" height="60" as="geometry" />
        </mxCell>
        <mxCell id="awYQYSeKbYUx0vMZh93B-21" value="Use" style="endArrow=open;endSize=12;dashed=1;html=1;rounded=0;exitX=1;exitY=0.206;exitDx=0;exitDy=0;exitPerimeter=0;strokeWidth=2;" parent="1" source="awYQYSeKbYUx0vMZh93B-4" edge="1">
          <mxGeometry width="160" relative="1" as="geometry">
            <mxPoint x="340" y="375" as="sourcePoint" />
            <mxPoint x="550" y="195" as="targetPoint" />
          </mxGeometry>
        </mxCell>
        <mxCell id="ifsXWIb-73GObZmsJjH4-1" value="&lt;font style=&quot;font-size: 28px;&quot;&gt;Server&lt;/font&gt;" style="text;strokeColor=none;fillColor=none;html=1;fontSize=24;fontStyle=1;verticalAlign=middle;align=center;" parent="1" vertex="1">
          <mxGeometry x="350" y="14" width="100" height="40" as="geometry" />
        </mxCell>
        <mxCell id="9rtWaW6Knd6fskqEHbHs-8" value="" style="edgeStyle=orthogonalEdgeStyle;rounded=0;orthogonalLoop=1;jettySize=auto;html=1;" edge="1" parent="1" source="ifsXWIb-73GObZmsJjH4-2" target="ifsXWIb-73GObZmsJjH4-4">
          <mxGeometry relative="1" as="geometry" />
        </mxCell>
        <mxCell id="ifsXWIb-73GObZmsJjH4-2" value="&lt;p style=&quot;margin:0px;margin-top:4px;text-align:center;&quot;&gt;&lt;i&gt;&amp;lt;&amp;lt;Interface&amp;gt;&amp;gt;&lt;/i&gt;&lt;br&gt;&lt;b&gt;FileOperations&lt;/b&gt;&lt;/p&gt;&lt;p style=&quot;margin:0px;margin-left:4px;&quot;&gt;&lt;br&gt;&lt;/p&gt;&lt;hr size=&quot;1&quot;&gt;&lt;p style=&quot;margin:0px;margin-left:4px;&quot;&gt;writeFile()&lt;/p&gt;&lt;p style=&quot;margin:0px;margin-left:4px;&quot;&gt;stop()&lt;/p&gt;" style="verticalAlign=top;align=left;overflow=fill;fontSize=12;fontFamily=Helvetica;html=1;rounded=0;shadow=0;comic=0;labelBackgroundColor=none;strokeWidth=1" parent="1" vertex="1">
          <mxGeometry x="280" y="482" width="110" height="90" as="geometry" />
        </mxCell>
        <mxCell id="ifsXWIb-73GObZmsJjH4-4" value="&lt;p style=&quot;margin:0px;margin-top:4px;text-align:center;&quot;&gt;&lt;/p&gt;&lt;p style=&quot;text-align: center; margin: 0px 0px 0px 4px;&quot;&gt;&lt;b&gt;SystemFileOperations&lt;/b&gt;&lt;/p&gt;&lt;p style=&quot;text-align: center; margin: 0px 0px 0px 4px;&quot;&gt;&lt;br&gt;&lt;/p&gt;&lt;hr size=&quot;1&quot; style=&quot;border-style:solid;&quot;&gt;&lt;p style=&quot;text-wrap-mode: nowrap; margin: 0px 0px 0px 4px;&quot;&gt;writeFile()&lt;/p&gt;&lt;p style=&quot;text-wrap-mode: nowrap; margin: 0px 0px 0px 4px;&quot;&gt;stop()&lt;/p&gt;" style="verticalAlign=top;align=left;overflow=fill;html=1;whiteSpace=wrap;" parent="1" vertex="1">
          <mxGeometry x="67" y="482" width="160" height="90" as="geometry" />
        </mxCell>
        <mxCell id="ifsXWIb-73GObZmsJjH4-7" value="Use" style="endArrow=open;endSize=12;dashed=1;html=1;rounded=0;entryX=1;entryY=0.5;entryDx=0;entryDy=0;strokeWidth=2;exitX=-0.002;exitY=0.801;exitDx=0;exitDy=0;exitPerimeter=0;" parent="1" target="5d2195bd80daf111-19" edge="1" source="awYQYSeKbYUx0vMZh93B-4">
          <mxGeometry width="160" relative="1" as="geometry">
            <mxPoint x="328" y="375" as="sourcePoint" />
            <mxPoint x="560" y="205" as="targetPoint" />
          </mxGeometry>
        </mxCell>
        <mxCell id="ifsXWIb-73GObZmsJjH4-8" value="Use" style="endArrow=open;endSize=12;dashed=1;html=1;rounded=0;strokeWidth=2;entryX=0.5;entryY=0;entryDx=0;entryDy=0;" parent="1" target="ifsXWIb-73GObZmsJjH4-2" edge="1">
          <mxGeometry width="160" relative="1" as="geometry">
            <mxPoint x="370" y="415" as="sourcePoint" />
            <mxPoint x="340" y="475" as="targetPoint" />
            <Array as="points">
              <mxPoint x="370" y="455" />
              <mxPoint x="335" y="455" />
            </Array>
          </mxGeometry>
        </mxCell>
        <mxCell id="ifsXWIb-73GObZmsJjH4-9" value="&lt;p style=&quot;margin:0px;margin-top:4px;text-align:center;&quot;&gt;&lt;i&gt;&amp;lt;&amp;lt;Interface&amp;gt;&amp;gt;&lt;/i&gt;&lt;br&gt;&lt;b&gt;NetworkProvider&lt;/b&gt;&lt;/p&gt;&lt;hr size=&quot;1&quot;&gt;&lt;p style=&quot;margin:0px;margin-left:4px;&quot;&gt;start()&lt;/p&gt;&lt;p style=&quot;margin:0px;margin-left:4px;&quot;&gt;stop()&lt;/p&gt;" style="verticalAlign=top;align=left;overflow=fill;fontSize=12;fontFamily=Helvetica;html=1;rounded=0;shadow=0;comic=0;labelBackgroundColor=none;strokeWidth=1" parent="1" vertex="1">
          <mxGeometry x="550" y="155" width="110" height="90" as="geometry" />
        </mxCell>
        <mxCell id="ifsXWIb-73GObZmsJjH4-10" value="&lt;p style=&quot;margin:0px;margin-top:4px;text-align:center;&quot;&gt;&lt;i&gt;&amp;lt;&amp;lt;Interface&amp;gt;&amp;gt;&lt;/i&gt;&lt;br&gt;&lt;/p&gt;&lt;p style=&quot;margin:0px;margin-top:4px;text-align:center;&quot;&gt;&lt;b style=&quot;&quot;&gt;NetworkObserver&lt;/b&gt;&lt;/p&gt;&lt;hr size=&quot;1&quot;&gt;&lt;p style=&quot;margin:0px;margin-left:4px;&quot;&gt;onNewNumber()&lt;/p&gt;&lt;p style=&quot;margin:0px;margin-left:4px;&quot;&gt;onAverageSquare()&lt;/p&gt;" style="verticalAlign=top;align=left;overflow=fill;fontSize=12;fontFamily=Helvetica;html=1;rounded=0;shadow=0;comic=0;labelBackgroundColor=none;strokeWidth=1" parent="1" vertex="1">
          <mxGeometry x="550" y="295" width="110" height="90" as="geometry" />
        </mxCell>
        <mxCell id="ifsXWIb-73GObZmsJjH4-12" style="edgeStyle=orthogonalEdgeStyle;rounded=0;orthogonalLoop=1;jettySize=auto;html=1;entryX=0.445;entryY=1.05;entryDx=0;entryDy=0;entryPerimeter=0;strokeWidth=2;" parent="1" source="5d2195bd80daf111-19" target="awYQYSeKbYUx0vMZh93B-7" edge="1">
          <mxGeometry relative="1" as="geometry" />
        </mxCell>
        <mxCell id="ifsXWIb-73GObZmsJjH4-19" value="" style="endArrow=classic;html=1;rounded=0;entryX=0.5;entryY=1;entryDx=0;entryDy=0;strokeWidth=2;exitX=0.5;exitY=0;exitDx=0;exitDy=0;" parent="1" source="awYQYSeKbYUx0vMZh93B-7" target="awYQYSeKbYUx0vMZh93B-10" edge="1">
          <mxGeometry width="50" height="50" relative="1" as="geometry">
            <mxPoint x="130" y="205" as="sourcePoint" />
            <mxPoint x="450" y="225" as="targetPoint" />
            <Array as="points">
              <mxPoint x="105" y="195" />
              <mxPoint x="235" y="195" />
            </Array>
          </mxGeometry>
        </mxCell>
        <mxCell id="ifsXWIb-73GObZmsJjH4-21" value="" style="endArrow=classic;html=1;rounded=0;entryX=0.009;entryY=0.589;entryDx=0;entryDy=0;entryPerimeter=0;exitX=1.013;exitY=0.761;exitDx=0;exitDy=0;exitPerimeter=0;strokeWidth=2;" parent="1" source="awYQYSeKbYUx0vMZh93B-4" target="ifsXWIb-73GObZmsJjH4-10" edge="1">
          <mxGeometry width="50" height="50" relative="1" as="geometry">
            <mxPoint x="400" y="275" as="sourcePoint" />
            <mxPoint x="450" y="225" as="targetPoint" />
          </mxGeometry>
        </mxCell>
        <mxCell id="ifsXWIb-73GObZmsJjH4-23" value="" style="endArrow=classic;html=1;rounded=0;entryX=1;entryY=0.5;entryDx=0;entryDy=0;exitX=0;exitY=0.5;exitDx=0;exitDy=0;strokeWidth=2;" parent="1" source="ifsXWIb-73GObZmsJjH4-2" target="ifsXWIb-73GObZmsJjH4-4" edge="1">
          <mxGeometry width="50" height="50" relative="1" as="geometry">
            <mxPoint x="490" y="357" as="sourcePoint" />
            <mxPoint x="561" y="358" as="targetPoint" />
          </mxGeometry>
        </mxCell>
        <mxCell id="ifsXWIb-73GObZmsJjH4-26" value="&lt;p style=&quot;margin:0px;margin-top:4px;text-align:center;&quot;&gt;&lt;/p&gt;&lt;p style=&quot;text-align: center; margin: 0px 0px 0px 4px;&quot;&gt;&lt;b&gt;Session&lt;/b&gt;&lt;/p&gt;&lt;hr size=&quot;1&quot; style=&quot;border-style:solid;&quot;&gt;&lt;p style=&quot;margin: 0px 0px 0px 4px;&quot;&gt;&lt;span style=&quot;text-wrap-mode: nowrap;&quot;&gt;send()&lt;/span&gt;&lt;/p&gt;" style="verticalAlign=top;align=left;overflow=fill;html=1;whiteSpace=wrap;" parent="1" vertex="1">
          <mxGeometry x="706" y="295" width="100" height="90" as="geometry" />
        </mxCell>
        <mxCell id="ifsXWIb-73GObZmsJjH4-28" value="&lt;p style=&quot;margin:0px;margin-top:4px;text-align:center;&quot;&gt;&lt;/p&gt;&lt;p style=&quot;text-align: center; margin: 0px 0px 0px 4px;&quot;&gt;&lt;b&gt;NetworkServer&lt;/b&gt;&lt;/p&gt;&lt;hr size=&quot;1&quot; style=&quot;border-style:solid;&quot;&gt;&lt;p style=&quot;text-wrap-mode: nowrap; margin: 0px 0px 0px 4px;&quot;&gt;start()&lt;/p&gt;&lt;p style=&quot;text-wrap-mode: nowrap; margin: 0px 0px 0px 4px;&quot;&gt;stop()&lt;/p&gt;" style="verticalAlign=top;align=left;overflow=fill;html=1;whiteSpace=wrap;" parent="1" vertex="1">
          <mxGeometry x="705" y="155" width="100" height="90" as="geometry" />
        </mxCell>
        <mxCell id="ifsXWIb-73GObZmsJjH4-29" value="Use" style="endArrow=open;endSize=12;dashed=1;html=1;rounded=0;exitX=0;exitY=0.5;exitDx=0;exitDy=0;strokeWidth=2;entryX=1;entryY=0.5;entryDx=0;entryDy=0;" parent="1" source="ifsXWIb-73GObZmsJjH4-26" target="ifsXWIb-73GObZmsJjH4-10" edge="1">
          <mxGeometry width="160" relative="1" as="geometry">
            <mxPoint x="493" y="206" as="sourcePoint" />
            <mxPoint x="560" y="205" as="targetPoint" />
          </mxGeometry>
        </mxCell>
        <mxCell id="ifsXWIb-73GObZmsJjH4-31" value="" style="endArrow=classic;html=1;rounded=0;entryX=1.027;entryY=0.589;entryDx=0;entryDy=0;entryPerimeter=0;strokeWidth=2;exitX=0.02;exitY=0.578;exitDx=0;exitDy=0;exitPerimeter=0;" parent="1" source="ifsXWIb-73GObZmsJjH4-28" target="ifsXWIb-73GObZmsJjH4-9" edge="1">
          <mxGeometry width="50" height="50" relative="1" as="geometry">
            <mxPoint x="699" y="208" as="sourcePoint" />
            <mxPoint x="561" y="358" as="targetPoint" />
          </mxGeometry>
        </mxCell>
        <mxCell id="ifsXWIb-73GObZmsJjH4-34" value="" style="endArrow=diamondThin;endFill=1;endSize=24;html=1;rounded=0;exitX=0.5;exitY=0;exitDx=0;exitDy=0;" parent="1" source="ifsXWIb-73GObZmsJjH4-26" target="ifsXWIb-73GObZmsJjH4-28" edge="1">
          <mxGeometry width="160" relative="1" as="geometry">
            <mxPoint x="350" y="245" as="sourcePoint" />
            <mxPoint x="510" y="245" as="targetPoint" />
          </mxGeometry>
        </mxCell>
        <mxCell id="ifsXWIb-73GObZmsJjH4-36" value="" style="swimlane;startSize=0;dashed=1;" parent="1" vertex="1">
          <mxGeometry x="50" y="445" width="360" height="140" as="geometry" />
        </mxCell>
        <mxCell id="ifsXWIb-73GObZmsJjH4-37" value="Thread 3" style="text;html=1;align=center;verticalAlign=middle;resizable=0;points=[];autosize=1;strokeColor=none;fillColor=none;" parent="1" vertex="1">
          <mxGeometry x="55" y="449" width="70" height="30" as="geometry" />
        </mxCell>
        <mxCell id="ifsXWIb-73GObZmsJjH4-38" value="" style="swimlane;startSize=0;dashed=1;" parent="1" vertex="1">
          <mxGeometry x="530" y="105" width="290" height="320" as="geometry" />
        </mxCell>
        <mxCell id="ifsXWIb-73GObZmsJjH4-40" value="Thread 2" style="text;html=1;align=center;verticalAlign=middle;resizable=0;points=[];autosize=1;strokeColor=none;fillColor=none;" parent="1" vertex="1">
          <mxGeometry x="556" y="113" width="70" height="30" as="geometry" />
        </mxCell>
        <mxCell id="ifsXWIb-73GObZmsJjH4-41" value="" style="swimlane;startSize=0;dashed=1;" parent="1" vertex="1">
          <mxGeometry x="310" y="75" width="190" height="360" as="geometry" />
        </mxCell>
        <mxCell id="ifsXWIb-73GObZmsJjH4-42" value="Thread 1" style="text;html=1;align=center;verticalAlign=middle;resizable=0;points=[];autosize=1;strokeColor=none;fillColor=none;" parent="1" vertex="1">
          <mxGeometry x="315" y="73" width="70" height="30" as="geometry" />
        </mxCell>
        <mxCell id="ifsXWIb-73GObZmsJjH4-44" value="Client" style="text;strokeColor=none;fillColor=none;html=1;fontSize=24;fontStyle=1;verticalAlign=middle;align=center;" parent="1" vertex="1">
          <mxGeometry x="350" y="608" width="100" height="40" as="geometry" />
        </mxCell>
        <mxCell id="9rtWaW6Knd6fskqEHbHs-1" value="&lt;p style=&quot;margin:0px;margin-top:4px;text-align:center;&quot;&gt;&lt;i&gt;&amp;lt;&amp;lt;Interface&amp;gt;&amp;gt;&lt;/i&gt;&lt;/p&gt;&lt;p style=&quot;margin:0px;margin-top:4px;text-align:center;&quot;&gt;&lt;b&gt;Timer&lt;/b&gt;&lt;br&gt;&lt;/p&gt;&lt;hr size=&quot;1&quot;&gt;&lt;p style=&quot;margin:0px;margin-left:4px;&quot;&gt;start()&lt;/p&gt;&lt;p style=&quot;margin:0px;margin-left:4px;&quot;&gt;cancel()&lt;/p&gt;" style="verticalAlign=top;align=left;overflow=fill;fontSize=12;fontFamily=Helvetica;html=1;rounded=0;shadow=0;comic=0;labelBackgroundColor=none;strokeWidth=1" vertex="1" parent="1">
          <mxGeometry x="450" y="482" width="110" height="91" as="geometry" />
        </mxCell>
        <mxCell id="9rtWaW6Knd6fskqEHbHs-2" value="&lt;p style=&quot;margin:0px;margin-top:4px;text-align:center;&quot;&gt;&lt;/p&gt;&lt;p style=&quot;text-align: center; margin: 0px 0px 0px 4px;&quot;&gt;&lt;b&gt;SystemTimer&lt;/b&gt;&lt;/p&gt;&lt;p style=&quot;text-align: center; margin: 0px 0px 0px 4px;&quot;&gt;&lt;br&gt;&lt;/p&gt;&lt;hr size=&quot;1&quot; style=&quot;border-style:solid;&quot;&gt;&lt;p style=&quot;text-wrap-mode: nowrap; margin: 0px 0px 0px 4px;&quot;&gt;start()&lt;/p&gt;&lt;p style=&quot;text-wrap-mode: nowrap; margin: 0px 0px 0px 4px;&quot;&gt;cancel()&lt;/p&gt;" style="verticalAlign=top;align=left;overflow=fill;html=1;whiteSpace=wrap;" vertex="1" parent="1">
          <mxGeometry x="610" y="480" width="110" height="90" as="geometry" />
        </mxCell>
        <mxCell id="9rtWaW6Knd6fskqEHbHs-6" value="Use" style="endArrow=open;endSize=12;dashed=1;html=1;rounded=0;entryX=0.5;entryY=0;entryDx=0;entryDy=0;strokeWidth=2;exitX=0.74;exitY=1;exitDx=0;exitDy=0;exitPerimeter=0;" edge="1" parent="1" source="awYQYSeKbYUx0vMZh93B-4" target="9rtWaW6Knd6fskqEHbHs-1">
          <mxGeometry width="160" relative="1" as="geometry">
            <mxPoint x="380" y="425" as="sourcePoint" />
            <mxPoint x="345" y="492" as="targetPoint" />
            <Array as="points">
              <mxPoint x="441" y="445" />
              <mxPoint x="505" y="445" />
            </Array>
          </mxGeometry>
        </mxCell>
        <mxCell id="9rtWaW6Knd6fskqEHbHs-9" value="" style="edgeStyle=orthogonalEdgeStyle;rounded=0;orthogonalLoop=1;jettySize=auto;html=1;entryX=0;entryY=0.5;entryDx=0;entryDy=0;strokeWidth=2;" edge="1" parent="1" target="9rtWaW6Knd6fskqEHbHs-2">
          <mxGeometry relative="1" as="geometry">
            <mxPoint x="560" y="525" as="sourcePoint" />
            <mxPoint x="237" y="537" as="targetPoint" />
          </mxGeometry>
        </mxCell>
        <mxCell id="9rtWaW6Knd6fskqEHbHs-13" value="Use" style="endArrow=open;endSize=12;dashed=1;html=1;rounded=0;entryX=1;entryY=0.25;entryDx=0;entryDy=0;strokeWidth=2;exitX=0.5;exitY=0;exitDx=0;exitDy=0;" edge="1" parent="1" source="ifsXWIb-73GObZmsJjH4-28" target="5d2195bd80daf111-19">
          <mxGeometry width="160" relative="1" as="geometry">
            <mxPoint x="820" y="95" as="sourcePoint" />
            <mxPoint x="230" y="370" as="targetPoint" />
            <Array as="points">
              <mxPoint x="755" y="65" />
              <mxPoint x="300" y="65" />
              <mxPoint x="300" y="333" />
            </Array>
          </mxGeometry>
        </mxCell>
        <mxCell id="9rtWaW6Knd6fskqEHbHs-18" value="Use" style="endArrow=open;endSize=12;dashed=1;html=1;rounded=0;entryX=0.25;entryY=1;entryDx=0;entryDy=0;strokeWidth=2;exitX=0.5;exitY=0;exitDx=0;exitDy=0;" edge="1" parent="1" source="ifsXWIb-73GObZmsJjH4-4" target="5d2195bd80daf111-19">
          <mxGeometry width="160" relative="1" as="geometry">
            <mxPoint x="338" y="385" as="sourcePoint" />
            <mxPoint x="240" y="385" as="targetPoint" />
          </mxGeometry>
        </mxCell>
        <mxCell id="9rtWaW6Knd6fskqEHbHs-19" value="" style="endArrow=classic;html=1;rounded=0;entryX=0.5;entryY=1;entryDx=0;entryDy=0;strokeWidth=2;exitX=0.5;exitY=0;exitDx=0;exitDy=0;" edge="1" parent="1" source="awYQYSeKbYUx0vMZh93B-7" target="awYQYSeKbYUx0vMZh93B-9">
          <mxGeometry width="50" height="50" relative="1" as="geometry">
            <mxPoint x="115" y="218" as="sourcePoint" />
            <mxPoint x="245" y="175" as="targetPoint" />
            <Array as="points" />
          </mxGeometry>
        </mxCell>
        <mxCell id="9rtWaW6Knd6fskqEHbHs-20" style="edgeStyle=orthogonalEdgeStyle;rounded=0;orthogonalLoop=1;jettySize=auto;html=1;exitX=0.5;exitY=0;exitDx=0;exitDy=0;entryX=0.5;entryY=1;entryDx=0;entryDy=0;strokeWidth=2;" edge="1" parent="1" source="9rtWaW6Knd6fskqEHbHs-21" target="9rtWaW6Knd6fskqEHbHs-27">
          <mxGeometry relative="1" as="geometry" />
        </mxCell>
        <mxCell id="9rtWaW6Knd6fskqEHbHs-21" value="&lt;p style=&quot;margin:0px;margin-top:4px;text-align:center;&quot;&gt;&lt;i&gt;&amp;lt;&amp;lt;Interface&amp;gt;&amp;gt;&lt;/i&gt;&lt;br&gt;&lt;b&gt;Logger&lt;/b&gt;&lt;/p&gt;&lt;hr size=&quot;1&quot;&gt;&lt;p style=&quot;margin:0px;margin-left:4px;&quot;&gt;log()&lt;/p&gt;&lt;p style=&quot;margin:0px;margin-left:4px;&quot;&gt;info()&lt;/p&gt;&lt;p style=&quot;margin:0px;margin-left:4px;&quot;&gt;warning()&lt;/p&gt;&lt;p style=&quot;margin:0px;margin-left:4px;&quot;&gt;error()&lt;/p&gt;" style="verticalAlign=top;align=left;overflow=fill;fontSize=12;fontFamily=Helvetica;html=1;rounded=0;shadow=0;comic=0;labelBackgroundColor=none;strokeWidth=1" vertex="1" parent="1">
          <mxGeometry x="110" y="869" width="110" height="110" as="geometry" />
        </mxCell>
        <mxCell id="9rtWaW6Knd6fskqEHbHs-22" value="Logic" style="swimlane;fontStyle=1;align=center;verticalAlign=top;childLayout=stackLayout;horizontal=1;startSize=26;horizontalStack=0;resizeParent=1;resizeParentMax=0;resizeLast=0;collapsible=1;marginBottom=0;whiteSpace=wrap;html=1;" vertex="1" parent="1">
          <mxGeometry x="320" y="688" width="150" height="290" as="geometry" />
        </mxCell>
        <mxCell id="9rtWaW6Knd6fskqEHbHs-23" value="" style="line;strokeWidth=1;fillColor=none;align=left;verticalAlign=middle;spacingTop=-1;spacingLeft=3;spacingRight=3;rotatable=0;labelPosition=right;points=[];portConstraint=eastwest;strokeColor=inherit;" vertex="1" parent="9rtWaW6Knd6fskqEHbHs-22">
          <mxGeometry y="26" width="150" height="8" as="geometry" />
        </mxCell>
        <mxCell id="9rtWaW6Knd6fskqEHbHs-24" value="&lt;div&gt;start()&lt;/div&gt;&lt;div&gt;onNewNumber()&lt;/div&gt;&lt;div&gt;onAverageSquare()&amp;nbsp;&lt;/div&gt;&lt;div&gt;&lt;span style=&quot;background-color: transparent; color: light-dark(rgb(0, 0, 0), rgb(255, 255, 255));&quot;&gt;stop()&lt;/span&gt;&lt;/div&gt;" style="text;strokeColor=none;fillColor=none;align=left;verticalAlign=top;spacingLeft=4;spacingRight=4;overflow=hidden;rotatable=0;points=[[0,0.5],[1,0.5]];portConstraint=eastwest;whiteSpace=wrap;html=1;" vertex="1" parent="9rtWaW6Knd6fskqEHbHs-22">
          <mxGeometry y="34" width="150" height="256" as="geometry" />
        </mxCell>
        <mxCell id="9rtWaW6Knd6fskqEHbHs-25" value="&lt;p style=&quot;margin:0px;margin-top:4px;text-align:center;&quot;&gt;&lt;/p&gt;&lt;div style=&quot;text-align: center; height: 2px;&quot;&gt;&lt;b&gt;DuplicateLogger&lt;/b&gt;&lt;/div&gt;&lt;div style=&quot;text-align: center;&quot;&gt;&lt;br&gt;&lt;/div&gt;&lt;hr size=&quot;1&quot; style=&quot;border-style:solid;&quot;&gt;&lt;div style=&quot;height:2px;&quot;&gt;&lt;/div&gt;" style="verticalAlign=top;align=left;overflow=fill;html=1;whiteSpace=wrap;" vertex="1" parent="1">
          <mxGeometry x="40" y="767" width="110" height="60" as="geometry" />
        </mxCell>
        <mxCell id="9rtWaW6Knd6fskqEHbHs-26" value="" style="endArrow=block;dashed=1;endFill=0;endSize=12;html=1;rounded=0;" edge="1" parent="1" target="9rtWaW6Knd6fskqEHbHs-27">
          <mxGeometry width="160" relative="1" as="geometry">
            <mxPoint x="200" y="809" as="sourcePoint" />
            <mxPoint x="360" y="809" as="targetPoint" />
          </mxGeometry>
        </mxCell>
        <mxCell id="9rtWaW6Knd6fskqEHbHs-27" value="&lt;p style=&quot;margin:0px;margin-top:4px;text-align:center;&quot;&gt;&lt;/p&gt;&lt;div style=&quot;text-align: center; height: 2px;&quot;&gt;&lt;b&gt;FakeLogger&lt;/b&gt;&lt;/div&gt;&lt;div style=&quot;text-align: center;&quot;&gt;&lt;br&gt;&lt;/div&gt;&lt;hr size=&quot;1&quot; style=&quot;border-style:solid;&quot;&gt;&lt;div style=&quot;height:2px;&quot;&gt;&lt;/div&gt;" style="verticalAlign=top;align=left;overflow=fill;html=1;whiteSpace=wrap;" vertex="1" parent="1">
          <mxGeometry x="170" y="767" width="108" height="60" as="geometry" />
        </mxCell>
        <mxCell id="9rtWaW6Knd6fskqEHbHs-28" value="&lt;p style=&quot;margin:0px;margin-top:4px;text-align:center;&quot;&gt;&lt;/p&gt;&lt;div style=&quot;text-align: center; height: 2px;&quot;&gt;&lt;b&gt;ScreenLogger&lt;/b&gt;&lt;/div&gt;&lt;div style=&quot;text-align: center; height: 2px;&quot;&gt;&lt;b&gt;&lt;br&gt;&lt;/b&gt;&lt;/div&gt;&lt;div style=&quot;text-align: center; height: 2px;&quot;&gt;&lt;b&gt;&lt;br&gt;&lt;/b&gt;&lt;/div&gt;&lt;div style=&quot;text-align: center; height: 2px;&quot;&gt;&lt;b&gt;&lt;br&gt;&lt;/b&gt;&lt;/div&gt;&lt;hr size=&quot;1&quot; style=&quot;border-style:solid;&quot;&gt;&lt;div style=&quot;height:2px;&quot;&gt;&lt;/div&gt;" style="verticalAlign=top;align=left;overflow=fill;html=1;whiteSpace=wrap;" vertex="1" parent="1">
          <mxGeometry x="40" y="669" width="110" height="60" as="geometry" />
        </mxCell>
        <mxCell id="9rtWaW6Knd6fskqEHbHs-29" value="&lt;p style=&quot;margin:0px;margin-top:4px;text-align:center;&quot;&gt;&lt;/p&gt;&lt;div style=&quot;text-align: center; height: 2px;&quot;&gt;&lt;b&gt;FileLogger&lt;/b&gt;&lt;/div&gt;&lt;div style=&quot;text-align: center; height: 2px;&quot;&gt;&lt;b&gt;&lt;br&gt;&lt;/b&gt;&lt;/div&gt;&lt;div style=&quot;text-align: center; height: 2px;&quot;&gt;&lt;b&gt;&lt;br&gt;&lt;/b&gt;&lt;/div&gt;&lt;div style=&quot;text-align: center; height: 2px;&quot;&gt;&lt;b&gt;&lt;br&gt;&lt;/b&gt;&lt;/div&gt;&lt;hr size=&quot;1&quot; style=&quot;text-align: center; border-style: solid;&quot;&gt;&lt;div style=&quot;text-align: center; height: 2px;&quot;&gt;&lt;/div&gt;" style="verticalAlign=top;align=left;overflow=fill;html=1;whiteSpace=wrap;" vertex="1" parent="1">
          <mxGeometry x="170" y="669" width="110" height="60" as="geometry" />
        </mxCell>
        <mxCell id="9rtWaW6Knd6fskqEHbHs-30" value="Use" style="endArrow=open;endSize=12;dashed=1;html=1;rounded=0;exitX=1;exitY=0.206;exitDx=0;exitDy=0;exitPerimeter=0;strokeWidth=2;" edge="1" parent="1" source="9rtWaW6Knd6fskqEHbHs-24">
          <mxGeometry width="160" relative="1" as="geometry">
            <mxPoint x="330" y="958" as="sourcePoint" />
            <mxPoint x="540" y="778" as="targetPoint" />
          </mxGeometry>
        </mxCell>
        <mxCell id="9rtWaW6Knd6fskqEHbHs-34" value="Use" style="endArrow=open;endSize=12;dashed=1;html=1;rounded=0;entryX=1;entryY=0.5;entryDx=0;entryDy=0;strokeWidth=2;exitX=-0.002;exitY=0.801;exitDx=0;exitDy=0;exitPerimeter=0;" edge="1" parent="1" source="9rtWaW6Knd6fskqEHbHs-24" target="9rtWaW6Knd6fskqEHbHs-21">
          <mxGeometry width="160" relative="1" as="geometry">
            <mxPoint x="318" y="958" as="sourcePoint" />
            <mxPoint x="550" y="788" as="targetPoint" />
          </mxGeometry>
        </mxCell>
        <mxCell id="9rtWaW6Knd6fskqEHbHs-36" value="&lt;p style=&quot;margin:0px;margin-top:4px;text-align:center;&quot;&gt;&lt;i&gt;&amp;lt;&amp;lt;Interface&amp;gt;&amp;gt;&lt;/i&gt;&lt;br&gt;&lt;b&gt;NetworkClientProvider&lt;/b&gt;&lt;/p&gt;&lt;hr size=&quot;1&quot;&gt;&lt;p style=&quot;margin:0px;margin-left:4px;&quot;&gt;start()&lt;/p&gt;&lt;p style=&quot;margin:0px;margin-left:4px;&quot;&gt;stop()&lt;/p&gt;&lt;p style=&quot;margin:0px;margin-left:4px;&quot;&gt;sendRandomNumber()&lt;/p&gt;&lt;p style=&quot;margin:0px;margin-left:4px;&quot;&gt;sendSumOfSquares()&lt;/p&gt;" style="verticalAlign=top;align=left;overflow=fill;fontSize=12;fontFamily=Helvetica;html=1;rounded=0;shadow=0;comic=0;labelBackgroundColor=none;strokeWidth=1" vertex="1" parent="1">
          <mxGeometry x="540" y="738" width="140" height="110" as="geometry" />
        </mxCell>
        <mxCell id="9rtWaW6Knd6fskqEHbHs-37" value="&lt;p style=&quot;margin:0px;margin-top:4px;text-align:center;&quot;&gt;&lt;i&gt;&amp;lt;&amp;lt;Interface&amp;gt;&amp;gt;&lt;/i&gt;&lt;br&gt;&lt;/p&gt;&lt;p style=&quot;margin:0px;margin-top:4px;text-align:center;&quot;&gt;&lt;b style=&quot;&quot;&gt;NetworkClientObserver&lt;/b&gt;&lt;/p&gt;&lt;hr size=&quot;1&quot;&gt;&lt;p style=&quot;margin:0px;margin-left:4px;&quot;&gt;&lt;span style=&quot;background-color: transparent; color: light-dark(rgb(0, 0, 0), rgb(255, 255, 255));&quot;&gt;onSumOfSquares()&lt;/span&gt;&lt;/p&gt;&lt;p style=&quot;margin:0px;margin-left:4px;&quot;&gt;&lt;span style=&quot;background-color: transparent; color: light-dark(rgb(0, 0, 0), rgb(255, 255, 255));&quot;&gt;onDisconnect()&lt;/span&gt;&lt;/p&gt;&lt;p style=&quot;margin:0px;margin-left:4px;&quot;&gt;&lt;span style=&quot;background-color: transparent; color: light-dark(rgb(0, 0, 0), rgb(255, 255, 255));&quot;&gt;onConnect()&lt;/span&gt;&lt;/p&gt;" style="verticalAlign=top;align=left;overflow=fill;fontSize=12;fontFamily=Helvetica;html=1;rounded=0;shadow=0;comic=0;labelBackgroundColor=none;strokeWidth=1" vertex="1" parent="1">
          <mxGeometry x="540" y="873" width="140" height="100" as="geometry" />
        </mxCell>
        <mxCell id="9rtWaW6Knd6fskqEHbHs-38" style="edgeStyle=orthogonalEdgeStyle;rounded=0;orthogonalLoop=1;jettySize=auto;html=1;entryX=0.445;entryY=1.05;entryDx=0;entryDy=0;entryPerimeter=0;strokeWidth=2;" edge="1" parent="1" source="9rtWaW6Knd6fskqEHbHs-21" target="9rtWaW6Knd6fskqEHbHs-25">
          <mxGeometry relative="1" as="geometry" />
        </mxCell>
        <mxCell id="9rtWaW6Knd6fskqEHbHs-39" value="" style="endArrow=classic;html=1;rounded=0;entryX=0.5;entryY=1;entryDx=0;entryDy=0;strokeWidth=2;exitX=0.5;exitY=0;exitDx=0;exitDy=0;" edge="1" parent="1" source="9rtWaW6Knd6fskqEHbHs-25" target="9rtWaW6Knd6fskqEHbHs-29">
          <mxGeometry width="50" height="50" relative="1" as="geometry">
            <mxPoint x="120" y="769" as="sourcePoint" />
            <mxPoint x="440" y="789" as="targetPoint" />
            <Array as="points">
              <mxPoint x="95" y="759" />
              <mxPoint x="225" y="759" />
            </Array>
          </mxGeometry>
        </mxCell>
        <mxCell id="9rtWaW6Knd6fskqEHbHs-40" value="" style="endArrow=classic;html=1;rounded=0;exitX=1.013;exitY=0.761;exitDx=0;exitDy=0;exitPerimeter=0;strokeWidth=2;" edge="1" parent="1" source="9rtWaW6Knd6fskqEHbHs-24">
          <mxGeometry width="50" height="50" relative="1" as="geometry">
            <mxPoint x="390" y="858" as="sourcePoint" />
            <mxPoint x="540" y="917" as="targetPoint" />
          </mxGeometry>
        </mxCell>
        <mxCell id="9rtWaW6Knd6fskqEHbHs-43" value="&lt;p style=&quot;margin:0px;margin-top:4px;text-align:center;&quot;&gt;&lt;/p&gt;&lt;p style=&quot;text-align: center; margin: 0px 0px 0px 4px;&quot;&gt;&lt;b&gt;NetworkClient&lt;/b&gt;&lt;/p&gt;&lt;hr size=&quot;1&quot; style=&quot;border-style:solid;&quot;&gt;&lt;p style=&quot;text-wrap-mode: nowrap; margin: 0px 0px 0px 4px;&quot;&gt;start()&lt;/p&gt;&lt;p style=&quot;text-wrap-mode: nowrap; margin: 0px 0px 0px 4px;&quot;&gt;stop()&lt;/p&gt;&lt;p style=&quot;text-wrap-mode: nowrap; margin: 0px 0px 0px 4px;&quot;&gt;sendRandomNumber()&lt;/p&gt;&lt;p style=&quot;text-wrap-mode: nowrap; margin: 0px 0px 0px 4px;&quot;&gt;sendSumOfSquares()&lt;/p&gt;" style="verticalAlign=top;align=left;overflow=fill;html=1;whiteSpace=wrap;" vertex="1" parent="1">
          <mxGeometry x="706" y="738" width="134" height="230" as="geometry" />
        </mxCell>
        <mxCell id="9rtWaW6Knd6fskqEHbHs-48" value="" style="swimlane;startSize=0;dashed=1;" vertex="1" parent="1">
          <mxGeometry x="520" y="688" width="330" height="302" as="geometry" />
        </mxCell>
        <mxCell id="9rtWaW6Knd6fskqEHbHs-49" value="Thread 2" style="text;html=1;align=center;verticalAlign=middle;resizable=0;points=[];autosize=1;strokeColor=none;fillColor=none;" vertex="1" parent="1">
          <mxGeometry x="546" y="696" width="70" height="30" as="geometry" />
        </mxCell>
        <mxCell id="9rtWaW6Knd6fskqEHbHs-50" value="" style="swimlane;startSize=0;dashed=1;" vertex="1" parent="1">
          <mxGeometry x="300" y="658" width="190" height="342" as="geometry" />
        </mxCell>
        <mxCell id="9rtWaW6Knd6fskqEHbHs-51" value="Thread 1" style="text;html=1;align=center;verticalAlign=middle;resizable=0;points=[];autosize=1;strokeColor=none;fillColor=none;" vertex="1" parent="1">
          <mxGeometry x="305" y="656" width="70" height="30" as="geometry" />
        </mxCell>
        <mxCell id="9rtWaW6Knd6fskqEHbHs-52" value="&lt;p style=&quot;margin:0px;margin-top:4px;text-align:center;&quot;&gt;&lt;i&gt;&amp;lt;&amp;lt;Interface&amp;gt;&amp;gt;&lt;/i&gt;&lt;/p&gt;&lt;p style=&quot;margin:0px;margin-top:4px;text-align:center;&quot;&gt;&lt;b&gt;Timer&lt;/b&gt;&lt;br&gt;&lt;/p&gt;&lt;hr size=&quot;1&quot;&gt;&lt;p style=&quot;margin:0px;margin-left:4px;&quot;&gt;start()&lt;/p&gt;&lt;p style=&quot;margin:0px;margin-left:4px;&quot;&gt;cancel()&lt;/p&gt;" style="verticalAlign=top;align=left;overflow=fill;fontSize=12;fontFamily=Helvetica;html=1;rounded=0;shadow=0;comic=0;labelBackgroundColor=none;strokeWidth=1" vertex="1" parent="1">
          <mxGeometry x="345" y="1013" width="110" height="83" as="geometry" />
        </mxCell>
        <mxCell id="9rtWaW6Knd6fskqEHbHs-53" value="&lt;p style=&quot;margin:0px;margin-top:4px;text-align:center;&quot;&gt;&lt;/p&gt;&lt;p style=&quot;text-align: center; margin: 0px 0px 0px 4px;&quot;&gt;&lt;b&gt;SystemTimer&lt;/b&gt;&lt;/p&gt;&lt;p style=&quot;text-align: center; margin: 0px 0px 0px 4px;&quot;&gt;&lt;br&gt;&lt;/p&gt;&lt;hr size=&quot;1&quot; style=&quot;border-style:solid;&quot;&gt;&lt;p style=&quot;text-wrap-mode: nowrap; margin: 0px 0px 0px 4px;&quot;&gt;start()&lt;/p&gt;&lt;p style=&quot;text-wrap-mode: nowrap; margin: 0px 0px 0px 4px;&quot;&gt;cancel()&lt;/p&gt;" style="verticalAlign=top;align=left;overflow=fill;html=1;whiteSpace=wrap;" vertex="1" parent="1">
          <mxGeometry x="506" y="1017" width="110" height="75" as="geometry" />
        </mxCell>
        <mxCell id="9rtWaW6Knd6fskqEHbHs-54" value="Use" style="endArrow=open;endSize=12;dashed=1;html=1;rounded=0;entryX=0.5;entryY=0;entryDx=0;entryDy=0;strokeWidth=2;" edge="1" parent="1" target="9rtWaW6Knd6fskqEHbHs-52">
          <mxGeometry width="160" relative="1" as="geometry">
            <mxPoint x="400" y="980" as="sourcePoint" />
            <mxPoint x="335" y="1033" as="targetPoint" />
            <Array as="points" />
          </mxGeometry>
        </mxCell>
        <mxCell id="9rtWaW6Knd6fskqEHbHs-55" value="" style="edgeStyle=orthogonalEdgeStyle;rounded=0;orthogonalLoop=1;jettySize=auto;html=1;entryX=0;entryY=0.5;entryDx=0;entryDy=0;strokeWidth=2;exitX=1;exitY=0.5;exitDx=0;exitDy=0;" edge="1" parent="1" target="9rtWaW6Knd6fskqEHbHs-53" source="9rtWaW6Knd6fskqEHbHs-52">
          <mxGeometry relative="1" as="geometry">
            <mxPoint x="550" y="1066" as="sourcePoint" />
            <mxPoint x="227" y="1078" as="targetPoint" />
          </mxGeometry>
        </mxCell>
        <mxCell id="9rtWaW6Knd6fskqEHbHs-56" value="Use" style="endArrow=open;endSize=12;dashed=1;html=1;rounded=0;entryX=1;entryY=0.25;entryDx=0;entryDy=0;strokeWidth=2;" edge="1" parent="1" target="9rtWaW6Knd6fskqEHbHs-21">
          <mxGeometry width="160" relative="1" as="geometry">
            <mxPoint x="760" y="738" as="sourcePoint" />
            <mxPoint x="220" y="953" as="targetPoint" />
            <Array as="points">
              <mxPoint x="760" y="648" />
              <mxPoint x="290" y="648" />
              <mxPoint x="290" y="897" />
            </Array>
          </mxGeometry>
        </mxCell>
        <mxCell id="9rtWaW6Knd6fskqEHbHs-58" value="" style="endArrow=classic;html=1;rounded=0;entryX=0.5;entryY=1;entryDx=0;entryDy=0;strokeWidth=2;exitX=0.5;exitY=0;exitDx=0;exitDy=0;" edge="1" parent="1" source="9rtWaW6Knd6fskqEHbHs-25" target="9rtWaW6Knd6fskqEHbHs-28">
          <mxGeometry width="50" height="50" relative="1" as="geometry">
            <mxPoint x="105" y="782" as="sourcePoint" />
            <mxPoint x="235" y="739" as="targetPoint" />
            <Array as="points" />
          </mxGeometry>
        </mxCell>
        <mxCell id="9rtWaW6Knd6fskqEHbHs-62" value="" style="endArrow=classic;html=1;rounded=0;entryX=1;entryY=0.5;entryDx=0;entryDy=0;strokeWidth=2;" edge="1" parent="1" target="9rtWaW6Knd6fskqEHbHs-36">
          <mxGeometry width="50" height="50" relative="1" as="geometry">
            <mxPoint x="700" y="793" as="sourcePoint" />
            <mxPoint x="551" y="942" as="targetPoint" />
          </mxGeometry>
        </mxCell>
        <mxCell id="9rtWaW6Knd6fskqEHbHs-63" value="Use" style="endArrow=open;endSize=12;dashed=1;html=1;rounded=0;exitX=0.005;exitY=0.804;exitDx=0;exitDy=0;strokeWidth=2;entryX=1;entryY=0.5;entryDx=0;entryDy=0;exitPerimeter=0;" edge="1" parent="1" source="9rtWaW6Knd6fskqEHbHs-43" target="9rtWaW6Knd6fskqEHbHs-37">
          <mxGeometry width="160" relative="1" as="geometry">
            <mxPoint x="480" y="789" as="sourcePoint" />
            <mxPoint x="550" y="788" as="targetPoint" />
          </mxGeometry>
        </mxCell>
      </root>
    </mxGraphModel>
  </diagram>
</mxfile>
